<svg width="74" height="74" viewBox="0 0 74 74" fill="none" xmlns="http://www.w3.org/2000/svg">
<rect x="0.5" y="0.5" width="73" height="73" rx="11.5" fill="#1F1F1F"/>
<rect x="0.5" y="0.5" width="73" height="73" rx="11.5" stroke="#333333"/>
<path fill-rule="evenodd" clip-rule="evenodd" d="M37.0733 21.7709H36.926C35.6532 21.7708 34.5918 21.7708 33.7492 21.8841C32.8598 22.0037 32.0568 22.2667 31.4116 22.9119C30.7663 23.5572 30.5033 24.3602 30.3837 25.2495C30.2704 26.0921 30.2705 27.1535 30.2705 28.4264V28.5365C27.4072 28.6302 25.6878 28.9648 24.4927 30.1598C22.833 31.8195 22.833 34.4908 22.833 39.8334C22.833 45.176 22.833 47.8473 24.4927 49.507C26.1525 51.1667 28.8238 51.1667 34.1663 51.1667H39.833C45.1756 51.1667 47.8469 51.1667 49.5066 49.507C51.1663 47.8473 51.1663 45.176 51.1663 39.8334C51.1663 34.4908 51.1663 31.8195 49.5066 30.1598C48.3116 28.9648 46.5922 28.6302 43.7288 28.5365V28.4264C43.7289 27.1536 43.7289 26.0921 43.6156 25.2495C43.4961 24.3602 43.233 23.5572 42.5878 22.9119C41.9425 22.2667 41.1396 22.0037 40.2502 21.8841C39.4076 21.7708 38.3462 21.7708 37.0733 21.7709ZM41.6038 28.5027V28.5C41.6038 27.1344 41.6016 26.217 41.5096 25.5327C41.4217 24.8789 41.2698 24.5992 41.0852 24.4145C40.9006 24.2299 40.6208 24.078 39.967 23.9901C39.2827 23.8981 38.3654 23.8959 36.9997 23.8959C35.634 23.8959 34.7166 23.8981 34.0323 23.9901C33.3786 24.078 33.0988 24.2299 32.9142 24.4145C32.7296 24.5992 32.5777 24.8789 32.4898 25.5327C32.3978 26.217 32.3955 27.1344 32.3955 28.5V28.5027C32.9509 28.5 33.5403 28.5 34.1663 28.5H39.833C40.4591 28.5 41.0485 28.5 41.6038 28.5027ZM44.083 32.75C44.083 33.5324 43.4487 34.1667 42.6663 34.1667C41.8839 34.1667 41.2497 33.5324 41.2497 32.75C41.2497 31.9676 41.8839 31.3334 42.6663 31.3334C43.4487 31.3334 44.083 31.9676 44.083 32.75ZM31.333 34.1667C32.1154 34.1667 32.7497 33.5324 32.7497 32.75C32.7497 31.9676 32.1154 31.3334 31.333 31.3334C30.5506 31.3334 29.9163 31.9676 29.9163 32.75C29.9163 33.5324 30.5506 34.1667 31.333 34.1667Z" fill="#0A84FF"/>
</svg>
