<svg width="74" height="74" viewBox="0 0 74 74" fill="none" xmlns="http://www.w3.org/2000/svg">
<rect x="0.5" y="0.5" width="73" height="73" rx="11.5" fill="#1F1F1F"/>
<rect x="0.5" y="0.5" width="73" height="73" rx="11.5" stroke="#333333"/>
<path fill-rule="evenodd" clip-rule="evenodd" d="M27.3267 24.493C25.667 26.1528 25.667 28.8241 25.667 34.1666V39.8333C25.667 45.1759 25.667 47.8472 27.3267 49.5069C28.9864 51.1666 31.6577 51.1666 37.0003 51.1666C42.3429 51.1666 45.0142 51.1666 46.6739 49.5069C48.3337 47.8472 48.3337 45.1759 48.3337 39.8333V34.1666C48.3337 28.8241 48.3337 26.1528 46.6739 24.493C45.0142 22.8333 42.3429 22.8333 37.0003 22.8333C31.6577 22.8333 28.9864 22.8333 27.3267 24.493ZM32.7503 26.0208C32.1635 26.0208 31.6878 26.4965 31.6878 27.0833C31.6878 27.6701 32.1635 28.1458 32.7503 28.1458H41.2503C41.8371 28.1458 42.3128 27.6701 42.3128 27.0833C42.3128 26.4965 41.8371 26.0208 41.2503 26.0208H32.7503ZM37.0003 46.9166C38.5651 46.9166 39.8337 45.6481 39.8337 44.0833C39.8337 42.5185 38.5651 41.25 37.0003 41.25C35.4355 41.25 34.167 42.5185 34.167 44.0833C34.167 45.6481 35.4355 46.9166 37.0003 46.9166Z" fill="#0A84FF"/>
</svg>
