<svg width="33" height="34" viewBox="0 0 33 34" fill="none" xmlns="http://www.w3.org/2000/svg">
<g clip-path="url(#clip0_31_14362)">
<path fill-rule="evenodd" clip-rule="evenodd" d="M18.3662 1.04698L20.4282 2.64986C20.9922 3.08823 21.5858 3.31257 22.2891 3.35324L24.8608 3.5018C26.4007 3.59072 27.6514 4.68049 28.0032 6.23996L28.5907 8.84424C28.7513 9.55647 29.0672 10.1246 29.5808 10.6252L31.4589 12.4557C32.5835 13.5517 32.867 15.2214 32.1712 16.6508L31.0093 19.0379C30.6915 19.6908 30.5818 20.3368 30.6654 21.0631L30.9711 23.719C31.1542 25.3093 30.3378 26.7775 28.9201 27.4081L26.5524 28.4611C25.9048 28.7491 25.4209 29.1707 25.0354 29.783L23.6256 32.0215C22.7815 33.3619 21.2473 33.9417 19.771 33.4784L17.3055 32.7047C16.6312 32.493 15.9995 32.493 15.3252 32.7047L12.8596 33.4784C11.3833 33.9417 9.84911 33.3619 9.00499 32.0215L7.5952 29.783C7.20959 29.1707 6.72571 28.7491 6.0782 28.4611L3.71032 27.4079C2.29262 26.7774 1.47629 25.3092 1.65932 23.7189L1.96505 21.063C2.04865 20.3366 1.93894 19.6906 1.62117 19.0377L0.459209 16.6506C-0.23652 15.2213 0.0469525 13.5516 1.17151 12.4556L3.04963 10.625C3.56327 10.1244 3.87908 9.55633 4.03972 8.8441L4.62723 6.23982C4.97895 4.68042 6.22965 3.59065 7.76957 3.50166L10.3413 3.3531C11.0447 3.3125 11.6383 3.08808 12.2022 2.64972L14.2642 1.04684C15.4989 0.0872275 17.1315 0.0872276 18.3662 1.04698ZM14.9998 17.8989L12.7621 15.575C12.1821 14.9727 11.2413 14.9727 10.6614 15.575C10.0814 16.1774 10.0814 17.1543 10.6614 17.7566L13.9527 21.1744C14.5327 21.7767 15.4735 21.7767 16.0534 21.1744C18.0373 19.1142 19.9986 17.0309 21.9733 14.9613C22.5491 14.3578 22.5473 13.384 21.9669 12.7846C21.3864 12.1851 20.446 12.1868 19.8696 12.7914L14.9998 17.8989ZM16.3152 5.49408C13.2606 5.49408 10.495 6.77989 8.49317 8.85871C6.49134 10.9376 5.25315 13.8094 5.25315 16.9815C5.25315 20.1536 6.49134 23.0255 8.49317 25.1044C10.495 27.1832 13.2606 28.469 16.3152 28.469C19.3698 28.469 22.1353 27.1832 24.1372 25.1044C26.139 23.0255 27.3772 20.1536 27.3772 16.9815C27.3772 13.8094 26.139 10.9375 24.1372 8.85871C22.1353 6.77989 19.3698 5.49408 16.3152 5.49408ZM23.372 9.65334C21.566 7.77793 19.071 6.61792 16.3152 6.61792C13.5593 6.61792 11.0643 7.77793 9.25836 9.65334C7.45241 11.5287 6.33537 14.1197 6.33537 16.9815C6.33537 19.8434 7.45241 22.4343 9.25836 24.3097C11.0643 26.1851 13.5593 27.3451 16.3152 27.3451C19.071 27.3451 21.566 26.1851 23.372 24.3098C25.1779 22.4344 26.2949 19.8435 26.2949 16.9816C26.295 14.1197 25.1779 11.5287 23.372 9.65334Z" fill="#48D085"/>
</g>
<defs>
<clipPath id="clip0_31_14362">
<rect width="33" height="34" fill="white"/>
</clipPath>
</defs>
</svg>
